<?xml version="1.0" encoding="UTF-8" standalone="no"?><!DOCTYPE svg PUBLIC "-//W3C//DTD SVG 1.1//EN" "http://www.w3.org/Graphics/SVG/1.1/DTD/svg11.dtd"><svg width="100%" height="100%" viewBox="0 0 348 46" version="1.1" xmlns="http://www.w3.org/2000/svg" xmlns:xlink="http://www.w3.org/1999/xlink" xml:space="preserve" xmlns:serif="http://www.serif.com/" style="fill-rule:evenodd;clip-rule:evenodd;stroke-linejoin:round;stroke-miterlimit:2;"><g id="Full-Dark" serif:id="Full Dark"><path d="M122.245,24.275c0,2.766 -0.508,5.207 -1.523,7.324c-1.016,2.117 -2.469,3.887 -4.359,5.309c-1.891,1.422 -4.184,2.496 -6.879,3.223c-2.695,0.727 -5.723,1.09 -9.082,1.09c-3.359,0 -6.395,-0.363 -9.105,-1.09c-2.711,-0.727 -5.02,-1.801 -6.926,-3.223c-1.906,-1.422 -3.375,-3.191 -4.406,-5.309c-1.031,-2.117 -1.547,-4.559 -1.547,-7.324c0,-2.766 0.516,-5.207 1.547,-7.324c1.031,-2.117 2.5,-3.887 4.406,-5.309c1.906,-1.422 4.215,-2.496 6.926,-3.223c2.711,-0.727 5.746,-1.09 9.105,-1.09c3.359,0 6.387,0.363 9.082,1.09c2.695,0.727 4.988,1.801 6.879,3.223c1.891,1.422 3.344,3.191 4.359,5.309c1.016,2.117 1.523,4.559 1.523,7.324Zm-8.789,0c0,-1.203 -0.191,-2.402 -0.574,-3.598c-0.383,-1.195 -1.062,-2.27 -2.039,-3.223c-0.977,-0.953 -2.309,-1.727 -3.996,-2.32c-1.688,-0.594 -3.836,-0.891 -6.445,-0.891c-1.75,0 -3.289,0.137 -4.617,0.41c-1.328,0.273 -2.477,0.652 -3.445,1.137c-0.969,0.484 -1.781,1.051 -2.438,1.699c-0.656,0.648 -1.18,1.344 -1.57,2.086c-0.391,0.742 -0.668,1.516 -0.832,2.32c-0.164,0.805 -0.246,1.598 -0.246,2.379c0,0.797 0.082,1.602 0.246,2.414c0.164,0.812 0.441,1.59 0.832,2.332c0.391,0.742 0.914,1.434 1.57,2.074c0.656,0.641 1.469,1.199 2.438,1.676c0.969,0.477 2.117,0.852 3.445,1.125c1.328,0.273 2.867,0.41 4.617,0.41c2.609,0 4.758,-0.297 6.445,-0.891c1.687,-0.594 3.02,-1.367 3.996,-2.32c0.977,-0.953 1.656,-2.027 2.039,-3.223c0.383,-1.195 0.574,-2.395 0.574,-3.598Z" style="fill:#fff;fill-rule:nonzero;"/><path d="M138.862,26.572c0,1.344 0.125,2.441 0.375,3.293c0.25,0.852 0.656,1.527 1.219,2.027c0.562,0.5 1.293,0.844 2.191,1.031c0.898,0.188 2.004,0.281 3.316,0.281l16.5,0l0,7.148l-18.281,0c-2.531,0 -4.684,-0.207 -6.457,-0.621c-1.773,-0.414 -3.223,-1.055 -4.348,-1.922c-1.125,-0.867 -1.941,-1.965 -2.449,-3.293c-0.508,-1.328 -0.762,-2.906 -0.762,-4.734l0,-21.633l8.695,0l0,18.422Z" style="fill:#fff;fill-rule:nonzero;"/><path d="M211.096,24.275c0,2.766 -0.508,5.207 -1.523,7.324c-1.016,2.117 -2.469,3.887 -4.359,5.309c-1.891,1.422 -4.184,2.496 -6.879,3.223c-2.695,0.727 -5.723,1.09 -9.082,1.09c-3.359,0 -6.395,-0.363 -9.105,-1.09c-2.711,-0.727 -5.02,-1.801 -6.926,-3.223c-1.906,-1.422 -3.375,-3.191 -4.406,-5.309c-1.031,-2.117 -1.547,-4.559 -1.547,-7.324c0,-2.766 0.516,-5.207 1.547,-7.324c1.031,-2.117 2.5,-3.887 4.406,-5.309c1.906,-1.422 4.215,-2.496 6.926,-3.223c2.711,-0.727 5.746,-1.09 9.105,-1.09c3.359,0 6.387,0.363 9.082,1.09c2.695,0.727 4.988,1.801 6.879,3.223c1.891,1.422 3.344,3.191 4.359,5.309c1.016,2.117 1.523,4.559 1.523,7.324Zm-8.789,0c0,-1.203 -0.191,-2.402 -0.574,-3.598c-0.383,-1.195 -1.062,-2.27 -2.039,-3.223c-0.977,-0.953 -2.309,-1.727 -3.996,-2.32c-1.688,-0.594 -3.836,-0.891 -6.445,-0.891c-1.75,0 -3.289,0.137 -4.617,0.41c-1.328,0.273 -2.477,0.652 -3.445,1.137c-0.969,0.484 -1.781,1.051 -2.438,1.699c-0.656,0.648 -1.18,1.344 -1.57,2.086c-0.391,0.742 -0.668,1.516 -0.832,2.32c-0.164,0.805 -0.246,1.598 -0.246,2.379c0,0.797 0.082,1.602 0.246,2.414c0.164,0.812 0.441,1.59 0.832,2.332c0.391,0.742 0.914,1.434 1.57,2.074c0.656,0.641 1.469,1.199 2.438,1.676c0.969,0.477 2.117,0.852 3.445,1.125c1.328,0.273 2.867,0.41 4.617,0.41c2.609,0 4.758,-0.297 6.445,-0.891c1.688,-0.594 3.02,-1.367 3.996,-2.32c0.977,-0.953 1.656,-2.027 2.039,-3.223c0.383,-1.195 0.574,-2.395 0.574,-3.598Z" style="fill:#fff;fill-rule:nonzero;"/><path d="M255.206,19.142c0,1.609 -0.234,3.09 -0.703,4.441c-0.469,1.352 -1.223,2.516 -2.262,3.492c-1.039,0.977 -2.387,1.738 -4.043,2.285c-1.656,0.547 -3.672,0.82 -6.047,0.82l-14.438,0l0,10.172l-8.695,0l0,-32.203l23.133,0c2.375,0 4.391,0.27 6.047,0.809c1.656,0.539 3.004,1.297 4.043,2.273c1.039,0.977 1.793,2.137 2.262,3.48c0.469,1.344 0.703,2.82 0.703,4.43Zm-8.789,0.141c0,-0.75 -0.105,-1.395 -0.316,-1.934c-0.211,-0.539 -0.559,-0.98 -1.043,-1.324c-0.484,-0.344 -1.117,-0.598 -1.898,-0.762c-0.781,-0.164 -1.742,-0.246 -2.883,-0.246l-12.562,0l0,8.297l12.562,0c1.141,0 2.102,-0.066 2.883,-0.199c0.781,-0.133 1.414,-0.359 1.898,-0.68c0.484,-0.32 0.832,-0.738 1.043,-1.254c0.211,-0.516 0.316,-1.148 0.316,-1.898Z" style="fill:#fff;fill-rule:nonzero;"/><path d="M289.706,40.353l0,-3.164c-1.109,0.609 -2.301,1.148 -3.574,1.617c-1.273,0.469 -2.598,0.867 -3.973,1.195c-1.375,0.328 -2.793,0.574 -4.254,0.738c-1.461,0.164 -2.934,0.246 -4.418,0.246c-1.734,0 -3.41,-0.164 -5.027,-0.492c-1.617,-0.328 -3.051,-0.859 -4.301,-1.594c-1.25,-0.734 -2.254,-1.695 -3.012,-2.883c-0.758,-1.188 -1.137,-2.641 -1.137,-4.359c0,-2.172 0.594,-3.98 1.781,-5.426c1.188,-1.445 3,-2.629 5.438,-3.551c2.438,-0.922 5.52,-1.633 9.246,-2.133c3.727,-0.5 8.137,-0.891 13.23,-1.172l0,-0.68c0,-0.531 -0.141,-1.059 -0.422,-1.582c-0.281,-0.523 -0.793,-0.984 -1.535,-1.383c-0.742,-0.398 -1.758,-0.723 -3.047,-0.973c-1.289,-0.25 -2.934,-0.375 -4.934,-0.375c-1.578,0 -3.137,0.082 -4.676,0.246c-1.539,0.164 -3.023,0.387 -4.453,0.668c-1.43,0.281 -2.785,0.609 -4.066,0.984c-1.281,0.375 -2.445,0.766 -3.492,1.172l0,-7.734c1.094,-0.281 2.32,-0.555 3.68,-0.82c1.359,-0.266 2.773,-0.496 4.242,-0.691c1.469,-0.195 2.953,-0.352 4.453,-0.469c1.5,-0.117 2.938,-0.176 4.312,-0.176c2.703,0 5.195,0.223 7.477,0.668c2.281,0.445 4.246,1.137 5.895,2.074c1.648,0.938 2.938,2.125 3.867,3.562c0.93,1.438 1.395,3.148 1.395,5.133l0,21.352l-8.695,0Zm0,-14.695c-3.344,0.125 -6.184,0.305 -8.52,0.539c-2.336,0.234 -4.277,0.508 -5.824,0.82c-1.547,0.312 -2.762,0.648 -3.645,1.008c-0.883,0.359 -1.543,0.727 -1.98,1.102c-0.438,0.375 -0.707,0.75 -0.809,1.125c-0.102,0.375 -0.152,0.719 -0.152,1.031c0,0.375 0.102,0.738 0.305,1.09c0.203,0.352 0.559,0.66 1.066,0.926c0.508,0.266 1.184,0.477 2.027,0.633c0.844,0.156 1.906,0.234 3.188,0.234c1.422,0 2.812,-0.109 4.172,-0.328c1.359,-0.219 2.648,-0.52 3.867,-0.902c1.219,-0.383 2.363,-0.836 3.434,-1.359c1.07,-0.523 2.027,-1.082 2.871,-1.676l0,-4.242Z" style="fill:#fff;fill-rule:nonzero;"/><path d="M347.784,24.228c0,2.062 -0.227,3.895 -0.68,5.496c-0.453,1.602 -1.09,2.996 -1.91,4.184c-0.82,1.188 -1.805,2.195 -2.953,3.023c-1.148,0.828 -2.426,1.492 -3.832,1.992c-1.406,0.5 -2.922,0.863 -4.547,1.09c-1.625,0.227 -3.32,0.34 -5.086,0.34l-20.438,0l0,-32.203l20.391,0c1.766,0 3.461,0.113 5.086,0.34c1.625,0.227 3.145,0.59 4.559,1.09c1.414,0.5 2.699,1.16 3.855,1.98c1.156,0.82 2.145,1.828 2.965,3.023c0.82,1.195 1.457,2.59 1.91,4.184c0.453,1.594 0.68,3.414 0.68,5.461Zm-8.766,0c0,-1.547 -0.199,-2.891 -0.598,-4.031c-0.398,-1.141 -1.039,-2.082 -1.922,-2.824c-0.883,-0.742 -2.035,-1.297 -3.457,-1.664c-1.422,-0.367 -3.156,-0.551 -5.203,-0.551l-10.805,0l0,18.188l10.805,0c2.047,0 3.781,-0.184 5.203,-0.551c1.422,-0.367 2.574,-0.93 3.457,-1.688c0.883,-0.758 1.523,-1.707 1.922,-2.848c0.398,-1.141 0.598,-2.484 0.598,-4.031Z" style="fill:#fff;fill-rule:nonzero;"/><path id="Logo-Merged" serif:id="Logo Merged" d="M36.674,22.826c0,10.12 -8.216,18.337 -18.337,18.337c-10.12,0 -18.337,-8.216 -18.337,-18.337c0,-10.12 8.216,-18.337 18.337,-18.337c5.172,0 9.846,2.146 13.181,5.595c-1.383,1.852 -2.472,3.936 -3.198,6.182c-2.137,-3.244 -5.812,-5.386 -9.983,-5.386c-6.593,0 -11.946,5.353 -11.946,11.946c0,6.593 5.353,11.946 11.946,11.946c6.593,0 11.946,-5.353 11.946,-11.946c0,-10.12 8.216,-18.337 18.337,-18.337c10.12,0 18.337,8.216 18.337,18.337c0,10.12 -8.216,18.337 -18.337,18.337c-5.172,-0 -9.846,-2.146 -13.181,-5.595c1.383,-1.852 2.472,-3.936 3.198,-6.182c2.137,3.244 5.812,5.386 9.983,5.386c6.593,0 11.946,-5.353 11.946,-11.946c0,-6.593 -5.353,-11.946 -11.946,-11.946c-6.593,0 -11.946,5.353 -11.946,11.946Zm-6.391,-17.668l0,-5.158l6.391,0l0,5.245c-1.127,0.776 -2.175,1.657 -3.131,2.629c-0.992,-1.009 -2.084,-1.92 -3.26,-2.717Zm6.391,35.249l-0,5.245l-6.391,0l0,-5.158c1.175,-0.797 2.267,-1.708 3.26,-2.717c0.956,0.972 2.004,1.853 3.131,2.629Z" style="fill:#0fc;"/></g></svg>